<svg width="222" height="133" viewBox="0 0 222 133" fill="none" xmlns="http://www.w3.org/2000/svg">
<path d="M106.554 87.1081H103.4L106.303 82.7596H111.133L106.554 87.1081Z" fill="#1E1E1E"/>
<path d="M29.3713 109.072V89.1299H33.0006V109.072H29.3713Z" fill="#1E1E1E"/>
<path d="M9.88283 109.349C8.44972 109.349 7.12829 109.099 5.91853 108.601C4.72738 108.084 3.68512 107.364 2.79176 106.441C1.8984 105.517 1.20976 104.428 0.725857 103.172C0.241952 101.917 0 100.541 0 99.0454C0 97.5498 0.241952 96.1834 0.725857 94.9463C1.20976 93.7092 1.88909 92.6382 2.76384 91.7335C3.6572 90.8102 4.69946 90.0993 5.89061 89.6008C7.10037 89.1022 8.43111 88.853 9.88283 88.853C11.4834 88.853 12.9258 89.1669 14.2101 89.7947C15.4943 90.4225 16.5458 91.3088 17.3647 92.4536C18.2023 93.5799 18.7141 94.9094 18.9002 96.4419H15.3268C15.1034 94.9463 14.4985 93.8015 13.5121 93.0075C12.5257 92.1951 11.3252 91.7888 9.91074 91.7888C8.66376 91.7888 7.57497 92.0843 6.64439 92.6751C5.7138 93.266 4.98794 94.1061 4.46681 95.1956C3.94569 96.2665 3.68512 97.5406 3.68512 99.0177C3.68512 100.532 3.94569 101.843 4.46681 102.951C4.98794 104.04 5.72311 104.89 6.6723 105.499C7.6215 106.108 8.71029 106.413 9.93866 106.413C11.3159 106.413 12.4978 106.016 13.4842 105.222C14.4706 104.409 15.0941 103.265 15.3547 101.787H18.956C18.7327 103.302 18.2023 104.631 17.3647 105.776C16.5458 106.921 15.4943 107.807 14.2101 108.435C12.9258 109.044 11.4834 109.349 9.88283 109.349Z" fill="#1E1E1E"/>
<path d="M71.7192 133C70.8 133 69.9492 132.831 69.1666 132.493C68.3965 132.143 67.7258 131.661 67.1544 131.048C66.5831 130.422 66.1421 129.69 65.8316 128.852C65.5211 128.001 65.3658 127.069 65.3658 126.056C65.3658 125.042 65.5211 124.116 65.8316 123.278C66.1421 122.427 66.5769 121.695 67.1358 121.082C67.7072 120.456 68.3779 119.974 69.148 119.637C69.9305 119.286 70.7814 119.111 71.7005 119.111C72.7067 119.111 73.6072 119.318 74.4021 119.73C75.2095 120.143 75.8678 120.725 76.3771 121.476C76.8988 122.227 77.2217 123.103 77.3459 124.104H75.8181C75.6691 122.99 75.2281 122.114 74.4953 121.476C73.7749 120.825 72.8495 120.5 71.7192 120.5C70.7628 120.5 69.9243 120.738 69.2039 121.213C68.4835 121.676 67.9245 122.327 67.5271 123.165C67.1296 123.991 66.9309 124.954 66.9309 126.056C66.9309 127.157 67.1296 128.126 67.5271 128.965C67.9245 129.791 68.4835 130.441 69.2039 130.917C69.9243 131.38 70.7565 131.611 71.7005 131.611C72.8557 131.611 73.7997 131.286 74.5326 130.635C75.2778 129.984 75.7188 129.109 75.8554 128.008H77.3832C77.259 129.009 76.936 129.884 76.4143 130.635C75.9051 131.386 75.2468 131.968 74.4394 132.381C73.6444 132.794 72.7377 133 71.7192 133Z" fill="#1E1E1E"/>
<path d="M84.8424 132.812V123.24H86.3329V132.812H84.8424ZM84.7306 121.063V119.299H86.4447V121.063H84.7306Z" fill="#1E1E1E"/>
<path d="M103.492 25.4387C103.492 25.9892 103.052 26.4355 102.509 26.4355C101.966 26.4355 101.526 25.9892 101.526 25.4387C101.526 24.8881 101.966 24.4418 102.509 24.4418C103.052 24.4418 103.492 24.8881 103.492 25.4387Z" fill="#E11616"/>
<path d="M105.95 23.9434C105.95 24.4939 105.51 24.9402 104.967 24.9402C104.424 24.9402 103.984 24.4939 103.984 23.9434C103.984 23.3929 104.424 22.9466 104.967 22.9466C105.51 22.9466 105.95 23.3929 105.95 23.9434Z" fill="#E11616"/>
<path d="M101.035 23.9434C101.035 24.4939 100.595 24.9402 100.052 24.9402C99.5087 24.9402 99.0686 24.4939 99.0686 23.9434C99.0686 23.3929 99.5087 22.9466 100.052 22.9466C100.595 22.9466 101.035 23.3929 101.035 23.9434Z" fill="#E11616"/>
<path d="M101.526 19.7069C101.526 19.1564 101.966 18.7101 102.509 18.7101C103.052 18.7101 103.492 19.1564 103.492 19.7069C103.492 20.2574 103.052 20.7037 102.509 20.7037C101.966 20.7037 101.526 20.2574 101.526 19.7069Z" fill="#E11616"/>
<path d="M99.0686 21.2021C99.0686 20.6516 99.5087 20.2053 100.052 20.2053C100.595 20.2053 101.035 20.6516 101.035 21.2021C101.035 21.7527 100.595 22.199 100.052 22.199C99.5087 22.199 99.0686 21.7527 99.0686 21.2021Z" fill="#E11616"/>
<path d="M103.984 21.2021C103.984 20.6516 104.424 20.2053 104.967 20.2053C105.51 20.2053 105.95 20.6516 105.95 21.2021C105.95 21.7527 105.51 22.199 104.967 22.199C104.424 22.199 103.984 21.7527 103.984 21.2021Z" fill="#E11616"/>
<path d="M115.078 24.4062C115.078 25.1141 114.512 25.6879 113.814 25.6879C113.116 25.6879 112.55 25.1141 112.55 24.4062C112.55 23.6984 113.116 23.1246 113.814 23.1246C114.512 23.1246 115.078 23.6984 115.078 24.4062Z" fill="#E11616"/>
<path d="M118.238 22.4838C118.238 23.1916 117.672 23.7654 116.974 23.7654C116.276 23.7654 115.71 23.1916 115.71 22.4838C115.71 21.776 116.276 21.2022 116.974 21.2022C117.672 21.2022 118.238 21.776 118.238 22.4838Z" fill="#E11616"/>
<path d="M111.918 22.4838C111.918 23.1916 111.352 23.7654 110.654 23.7654C109.956 23.7654 109.39 23.1916 109.39 22.4838C109.39 21.776 109.956 21.2022 110.654 21.2022C111.352 21.2022 111.918 21.776 111.918 22.4838Z" fill="#E11616"/>
<path d="M112.55 17.0012C112.55 16.2934 113.116 15.7196 113.814 15.7196C114.512 15.7196 115.078 16.2934 115.078 17.0012C115.078 17.7091 114.512 18.2829 113.814 18.2829C113.116 18.2829 112.55 17.7091 112.55 17.0012Z" fill="#E11616"/>
<path d="M109.39 18.9237C109.39 18.2159 109.956 17.6421 110.654 17.6421C111.352 17.6421 111.918 18.2159 111.918 18.9237C111.918 19.6315 111.352 20.2053 110.654 20.2053C109.956 20.2053 109.39 19.6315 109.39 18.9237Z" fill="#E11616"/>
<path d="M115.71 18.9237C115.71 18.2159 116.276 17.6421 116.974 17.6421C117.672 17.6421 118.238 18.2159 118.238 18.9237C118.238 19.6315 117.672 20.2053 116.974 20.2053C116.276 20.2053 115.71 19.6315 115.71 18.9237Z" fill="#E11616"/>
<path d="M44.2766 109.072V89.1299H48.7714L57.5375 104.641V89.1299H61.0551V109.072H56.5604L47.7943 93.5611V109.072H44.2766Z" fill="#1E1E1E"/>
<path d="M72.3229 109.072V89.1299H86.4771V91.9827H75.9522V97.4113H85.8071V100.209H75.9522V106.219H86.7842V109.072H72.3229Z" fill="#1E1E1E"/>
<path d="M94.5351 132.812V123.24H95.9325V125.064C96.2504 124.49 96.6913 124.026 97.2554 123.672C97.9261 123.259 98.6838 123.053 99.5284 123.053C100.522 123.053 101.317 123.34 101.913 123.916C102.522 124.479 102.826 125.223 102.826 126.149V132.812H101.336V126.544C101.336 125.818 101.156 125.274 100.795 124.911C100.435 124.548 99.9011 124.366 99.1931 124.366C98.572 124.366 98.0193 124.504 97.5348 124.779C97.0628 125.055 96.6902 125.436 96.4169 125.924C96.1561 126.412 96.0257 126.982 96.0257 127.632V132.812H94.5351Z" fill="#1E1E1E"/>
<path fill-rule="evenodd" clip-rule="evenodd" d="M181.127 109.072V89.1299H190.145C191.615 89.1299 192.871 89.3792 193.914 89.8777C194.974 90.3763 195.784 91.0779 196.342 91.9827C196.919 92.8875 197.208 93.9584 197.208 95.1956C197.208 96.4142 196.919 97.4852 196.342 98.4084C195.765 99.3316 194.956 100.052 193.914 100.569C192.871 101.067 191.615 101.317 190.145 101.317H184.757V109.072H181.127ZM192.629 97.6052C192.015 98.1961 191.131 98.4915 189.977 98.4915H184.757V91.9827H189.977C191.131 91.9827 192.015 92.2689 192.629 92.8413C193.262 93.4137 193.579 94.1985 193.579 95.1956C193.579 96.2111 193.262 97.0143 192.629 97.6052Z" fill="#1E1E1E"/>
<path fill-rule="evenodd" clip-rule="evenodd" d="M151.887 109.072L159.285 89.1299H160.122H162.411H163.416L170.787 109.072H167.046L165.324 104.114H157.188L155.46 109.072H151.887ZM164.324 101.233H158.192L161.265 92.4201L164.324 101.233Z" fill="#1E1E1E"/>
<path fill-rule="evenodd" clip-rule="evenodd" d="M96.4483 109.072L103.846 89.1299H104.684H106.973H107.978L115.348 109.072H111.608L109.886 104.114H101.75L100.022 109.072H96.4483ZM108.886 101.233H102.754L105.826 92.4201L108.886 101.233Z" fill="#1E1E1E"/>
<path d="M134.039 109.349C131.918 109.349 130.084 108.933 128.54 108.102C126.995 107.253 125.804 106.071 124.966 104.557C124.129 103.025 123.71 101.234 123.71 99.1839C123.71 97.1344 124.129 95.3433 124.966 93.8107C125.804 92.2597 126.967 91.0503 128.456 90.1824C129.945 89.2961 131.676 88.853 133.648 88.853C135.249 88.853 136.682 89.1484 137.948 89.7393C139.232 90.3117 140.265 91.1057 141.047 92.1212C141.847 93.1183 142.331 94.2816 142.498 95.611H138.869C138.683 94.4293 138.125 93.4968 137.194 92.8136C136.263 92.1304 135.1 91.7888 133.704 91.7888C132.439 91.7888 131.331 92.0843 130.382 92.6751C129.433 93.266 128.698 94.1061 128.177 95.1956C127.656 96.285 127.395 97.5867 127.395 99.1008C127.395 100.652 127.656 101.981 128.177 103.089C128.716 104.179 129.489 105.01 130.494 105.582C131.517 106.154 132.764 106.441 134.235 106.441C135.37 106.441 136.347 106.302 137.166 106.025C137.911 105.756 138.525 105.373 139.009 104.875V101.123H134.207V98.2976H142.638V106.08C141.577 107.151 140.349 107.964 138.953 108.518C137.557 109.072 135.919 109.349 134.039 109.349Z" fill="#1E1E1E"/>
<path d="M207.539 109.03V89.0883H221.693V91.9411H211.168V97.3697H221.023V100.167H211.168V106.177H222V109.03H207.539Z" fill="#1E1E1E"/>
<path d="M126.639 132.812V123.24H128.036V125.063C128.353 124.489 128.787 124.026 129.341 123.672C129.986 123.259 130.688 123.053 131.446 123.053C132.365 123.053 133.11 123.328 133.682 123.878C134.002 124.18 134.232 124.542 134.373 124.965C134.688 124.436 135.116 124.005 135.657 123.672C136.327 123.259 137.048 123.053 137.818 123.053C138.737 123.053 139.489 123.328 140.072 123.878C140.656 124.416 140.948 125.148 140.948 126.074V132.812H139.458V126.468C139.458 125.743 139.296 125.211 138.973 124.873C138.65 124.535 138.184 124.366 137.576 124.366C137.004 124.366 136.489 124.504 136.029 124.779C135.57 125.055 135.203 125.436 134.93 125.924C134.669 126.412 134.539 126.982 134.539 127.632V132.812H133.048V126.468C133.048 125.743 132.887 125.211 132.564 124.873C132.241 124.535 131.775 124.366 131.166 124.366C130.595 124.366 130.08 124.504 129.62 124.779C129.16 125.055 128.794 125.436 128.521 125.924C128.275 126.384 128.145 126.916 128.131 127.521C128.13 127.558 128.13 127.595 128.13 127.632V132.812H126.639Z" fill="#1E1E1E"/>
<path fill-rule="evenodd" clip-rule="evenodd" d="M154.809 132.812C154.759 132.6 154.722 132.356 154.697 132.08C154.688 131.882 154.682 131.645 154.68 131.368C154.459 131.828 154.117 132.196 153.654 132.474C153.082 132.825 152.381 133 151.548 133C150.567 133 149.785 132.762 149.201 132.287C148.629 131.799 148.344 131.136 148.344 130.297C148.344 129.459 148.629 128.808 149.201 128.345C149.772 127.882 150.604 127.557 151.697 127.369L154.585 126.879V126.45C154.585 125.724 154.418 125.192 154.082 124.854C153.759 124.504 153.231 124.329 152.499 124.329C151.778 124.329 151.201 124.479 150.766 124.779C150.344 125.067 150.108 125.48 150.058 126.018H148.623C148.685 125.092 149.07 124.366 149.778 123.841C150.486 123.315 151.412 123.053 152.555 123.053C153.734 123.053 154.61 123.334 155.182 123.897C155.753 124.46 156.039 125.305 156.039 126.431V131.029C156.039 131.305 156.057 131.592 156.094 131.893C156.132 132.18 156.181 132.487 156.244 132.812H154.809ZM150.337 129.096C150.698 128.833 151.225 128.646 151.921 128.533L154.585 128.113V129.659C154.585 130.272 154.318 130.773 153.784 131.161C153.262 131.536 152.586 131.724 151.753 131.724C151.107 131.724 150.617 131.599 150.281 131.348C149.958 131.098 149.797 130.729 149.797 130.241C149.797 129.741 149.977 129.359 150.337 129.096Z" fill="#1E1E1E"/>
<path fill-rule="evenodd" clip-rule="evenodd" d="M114.799 133C113.893 133 113.092 132.787 112.396 132.362C111.7 131.924 111.154 131.33 110.756 130.579C110.359 129.828 110.16 128.965 110.16 127.989C110.16 127.013 110.353 126.156 110.738 125.417C111.135 124.667 111.688 124.085 112.396 123.672C113.104 123.259 113.918 123.053 114.837 123.053C115.719 123.053 116.483 123.247 117.128 123.634C117.787 124.022 118.29 124.567 118.638 125.267C118.998 125.968 119.178 126.794 119.178 127.745C119.178 127.87 119.172 127.989 119.159 128.101C119.159 128.214 119.147 128.339 119.122 128.477H111.708C111.782 129.383 112.061 130.127 112.545 130.71C113.129 131.386 113.905 131.724 114.874 131.724C115.483 131.724 116.017 131.592 116.476 131.33C116.936 131.054 117.271 130.666 117.482 130.166H118.898C118.588 131.042 118.066 131.736 117.333 132.249C116.613 132.75 115.768 133 114.799 133ZM114.837 124.329C115.756 124.329 116.464 124.642 116.961 125.267C117.362 125.751 117.606 126.401 117.69 127.219H111.736C111.839 126.452 112.109 125.82 112.545 125.324C113.129 124.66 113.893 124.329 114.837 124.329Z" fill="#1E1E1E"/>
<path fill-rule="evenodd" clip-rule="evenodd" d="M85.302 0.426834L108.313 7.54415C110.095 8.09526 112 8.09526 113.782 7.54415L136.793 0.426838C143.938 -1.78285 150.627 4.95547 148.433 12.1523L141.368 35.3331C140.821 37.128 140.821 39.047 141.368 40.8419L148.433 64.0227C150.627 71.2195 143.938 77.9579 136.793 75.7482L113.782 68.6308C112 68.0797 110.095 68.0797 108.313 68.6308L85.302 75.7482C78.1577 77.9578 71.4687 71.2195 73.6622 64.0227L80.7275 40.8419C81.2746 39.047 81.2746 37.128 80.7275 35.3331L73.6622 12.1523C71.4687 4.95545 78.1577 -1.78285 85.302 0.426834ZM96.611 44.8909H120.733V28.5838H96.611V44.8909ZM102.509 27.6815C105.224 27.6815 107.424 25.45 107.424 22.6974C107.424 19.9447 105.224 17.7133 102.509 17.7133C99.7946 17.7133 97.594 19.9447 97.594 22.6974C97.594 25.45 99.7946 27.6815 102.509 27.6815ZM113.814 26.6847C117.072 26.6847 119.712 24.0069 119.712 20.7037C119.712 17.4006 117.072 14.7228 113.814 14.7228C110.557 14.7228 107.916 17.4006 107.916 20.7037C107.916 24.0069 110.557 26.6847 113.814 26.6847ZM112.653 46.7002C112.653 46.2638 112.304 45.9101 111.874 45.9101H107.197C106.767 45.9102 106.418 46.2639 106.418 46.7002C106.418 47.1366 106.767 47.4911 107.197 47.4911H108.236L101.911 60.5811C101.746 60.9221 101.886 61.3347 102.222 61.502C102.559 61.6691 102.965 61.5278 103.13 61.1866L108.652 49.7575V61.0147C108.652 61.3944 108.956 61.7023 109.331 61.7026C109.705 61.7026 110.009 61.3946 110.009 61.0147V50.0531L114.444 60.2568C114.595 60.6044 114.995 60.7619 115.338 60.6089C115.68 60.4557 115.836 60.05 115.685 59.7023L110.377 47.4911H111.874C112.304 47.4911 112.653 47.1367 112.653 46.7002ZM121.698 39.5278V32.9598C121.698 32.4722 122.088 32.077 122.569 32.077C125.81 32.077 129.014 31.3711 131.963 30.007L133.277 29.3992V42.1187L130.649 41.3589C128.551 40.7526 126.381 40.4451 124.201 40.4451H122.603C122.103 40.4451 121.698 40.0344 121.698 39.5278ZM95.6461 30.8668V34.2913H95.6144C93.7182 34.2913 91.8343 34.6013 90.0354 35.2093C89.9475 35.239 89.8567 35.1727 89.8567 35.0788L89.8568 30.5942C89.8568 30.4808 89.9571 30.3946 90.0674 30.4132L90.8314 30.5423C92.1092 30.7583 93.4025 30.8668 94.6979 30.8668L95.6461 30.8668Z" fill="#E11616"/>
<path d="M97.1136 42.078V44.0546H101.654V42.078H97.1136Z" fill="#E11616"/>
<path d="M106.194 42.078V44.0546H110.734V42.078H106.194Z" fill="#E11616"/>
<path d="M115.275 42.078V44.0546H119.815V42.078H115.275Z" fill="#E11616"/>
<path fill-rule="evenodd" clip-rule="evenodd" d="M97.1136 31.0927H101.654V29.1161H97.1136V31.0927ZM106.194 31.0927H110.734V29.1161H106.194V31.0927ZM115.275 31.0927H119.815V29.1161H115.275V31.0927ZM115.078 24.4062C115.078 25.1141 114.512 25.6879 113.814 25.6879C113.116 25.6879 112.55 25.1141 112.55 24.4062C112.55 23.6984 113.116 23.1246 113.814 23.1246C114.512 23.1246 115.078 23.6984 115.078 24.4062ZM118.238 22.4838C118.238 23.1916 117.672 23.7654 116.974 23.7654C116.276 23.7654 115.71 23.1916 115.71 22.4838C115.71 21.776 116.276 21.2022 116.974 21.2022C117.672 21.2022 118.238 21.776 118.238 22.4838ZM111.918 22.4838C111.918 23.1916 111.352 23.7654 110.654 23.7654C109.956 23.7654 109.39 23.1916 109.39 22.4838C109.39 21.776 109.956 21.2022 110.654 21.2022C111.352 21.2022 111.918 21.776 111.918 22.4838ZM112.55 17.0012C112.55 16.2934 113.116 15.7196 113.814 15.7196C114.512 15.7196 115.078 16.2934 115.078 17.0012C115.078 17.7091 114.512 18.2829 113.814 18.2829C113.116 18.2829 112.55 17.7091 112.55 17.0012ZM109.39 18.9237C109.39 18.2159 109.956 17.6421 110.654 17.6421C111.352 17.6421 111.918 18.2159 111.918 18.9237C111.918 19.6315 111.352 20.2053 110.654 20.2053C109.956 20.2053 109.39 19.6315 109.39 18.9237ZM115.71 18.9237C115.71 18.2159 116.276 17.6421 116.974 17.6421C117.672 17.6421 118.238 18.2159 118.238 18.9237C118.238 19.6315 117.672 20.2053 116.974 20.2053C116.276 20.2053 115.71 19.6315 115.71 18.9237ZM102.509 26.4355C103.052 26.4355 103.492 25.9892 103.492 25.4387C103.492 24.8881 103.052 24.4418 102.509 24.4418C101.966 24.4418 101.526 24.8881 101.526 25.4387C101.526 25.9892 101.966 26.4355 102.509 26.4355ZM104.967 24.9402C105.51 24.9402 105.95 24.4939 105.95 23.9434C105.95 23.3929 105.51 22.9466 104.967 22.9466C104.424 22.9466 103.984 23.3929 103.984 23.9434C103.984 24.4939 104.424 24.9402 104.967 24.9402ZM100.052 24.9402C100.595 24.9402 101.035 24.4939 101.035 23.9434C101.035 23.3929 100.595 22.9466 100.052 22.9466C99.5087 22.9466 99.0686 23.3929 99.0686 23.9434C99.0686 24.4939 99.5087 24.9402 100.052 24.9402ZM102.509 18.7101C101.966 18.7101 101.526 19.1564 101.526 19.7069C101.526 20.2574 101.966 20.7037 102.509 20.7037C103.052 20.7037 103.492 20.2574 103.492 19.7069C103.492 19.1564 103.052 18.7101 102.509 18.7101ZM100.052 20.2053C99.5087 20.2053 99.0686 20.6516 99.0686 21.2021C99.0686 21.7527 99.5087 22.199 100.052 22.199C100.595 22.199 101.035 21.7527 101.035 21.2021C101.035 20.6516 100.595 20.2053 100.052 20.2053ZM104.967 20.2053C104.424 20.2053 103.984 20.6516 103.984 21.2021C103.984 21.7527 104.424 22.199 104.967 22.199C105.51 22.199 105.95 21.7527 105.95 21.2021C105.95 20.6516 105.51 20.2053 104.967 20.2053Z" fill="#E11616"/>
<path d="M109.095 35.2698H111.084V36.1871H109.095V40.1616H108.19V36.1871H106.26V35.2698H108.19V33.3125H109.095V35.2698Z" fill="#E11616"/>
</svg>
