<svg width="1911" height="1146" viewBox="0 0 1911 1146" fill="none" xmlns="http://www.w3.org/2000/svg">
<path d="M917.232 750.57H890.076L915.069 713.102H956.644L917.232 750.57Z" fill="white"/>
<path d="M252.831 939.821V767.992H284.072V939.821H252.831Z" fill="white"/>
<path d="M85.0724 942.208C72.7361 942.208 61.3611 940.06 50.9473 935.764C40.6938 931.309 31.7219 925.104 24.0318 917.149C16.3416 909.194 10.4138 899.807 6.24826 888.988C2.08275 878.169 0 866.316 0 853.429C0 840.542 2.08275 828.768 6.24826 818.109C10.4138 807.449 16.2615 798.221 23.7914 790.425C31.4816 782.47 40.4535 776.345 50.707 772.049C61.1208 767.753 72.5759 765.605 85.0724 765.605C98.8506 765.605 111.267 768.31 122.322 773.719C133.376 779.129 142.428 786.766 149.478 796.63C156.687 806.335 161.093 817.79 162.695 830.996H131.934C130.012 818.109 124.805 808.244 116.314 801.403C107.823 794.402 97.4888 790.902 85.3128 790.902C74.5786 790.902 65.2062 793.448 57.1956 798.539C49.185 803.63 42.9367 810.869 38.4508 820.256C33.9649 829.484 31.7219 840.462 31.7219 853.19C31.7219 866.237 33.9649 877.533 38.4508 887.079C42.9367 896.466 49.2651 903.785 57.4359 909.035C65.6067 914.285 74.9791 916.91 85.5531 916.91C97.4087 916.91 107.582 913.49 116.073 906.648C124.565 899.648 129.932 889.784 132.175 877.056H163.176C161.253 890.102 156.687 901.557 149.478 911.421C142.428 921.286 133.376 928.923 122.322 934.332C111.267 939.582 98.8506 942.208 85.0724 942.208Z" fill="white"/>
<path d="M617.366 1146C609.454 1146 602.13 1144.54 595.394 1141.63C588.765 1138.61 582.991 1134.46 578.073 1129.18C573.154 1123.79 569.359 1117.48 566.685 1110.26C564.012 1102.93 562.676 1094.9 562.676 1086.16C562.676 1077.43 564.012 1069.45 566.685 1062.23C569.359 1054.9 573.101 1048.59 577.912 1043.31C582.831 1037.92 588.604 1033.77 595.234 1030.85C601.97 1027.84 609.294 1026.33 617.206 1026.33C625.867 1026.33 633.619 1028.1 640.462 1031.66C647.411 1035.22 653.078 1040.23 657.462 1046.7C661.953 1053.17 664.733 1060.72 665.802 1069.34H652.651C651.368 1059.75 647.572 1052.2 641.263 1046.7C635.062 1041.1 627.096 1038.29 617.366 1038.29C609.133 1038.29 601.916 1040.34 595.715 1044.44C589.513 1048.43 584.702 1054.03 581.28 1061.26C577.859 1068.37 576.148 1076.68 576.148 1086.16C576.148 1095.65 577.859 1104.01 581.28 1111.23C584.702 1118.35 589.513 1123.95 595.715 1128.05C601.916 1132.04 609.08 1134.03 617.206 1134.03C627.15 1134.03 635.276 1131.23 641.584 1125.62C648 1120.02 651.795 1112.47 652.971 1102.98H666.123C665.054 1111.61 662.274 1119.15 657.783 1125.62C653.399 1132.09 647.732 1137.11 640.782 1140.66C633.939 1144.22 626.134 1146 617.366 1146Z" fill="white"/>
<path d="M730.332 1144.38V1061.9H743.163V1144.38H730.332ZM729.37 1043.15V1027.94H744.125V1043.15H729.37Z" fill="white"/>
<path d="M634.092 104.711C615.21 42.6989 672.79 -15.362 734.289 3.67783L932.373 65.0045C947.711 69.7531 964.109 69.7531 979.447 65.0045L1177.53 3.67787C1239.03 -15.362 1296.61 42.699 1277.73 104.711L1216.91 304.449C1212.2 319.915 1212.2 336.45 1216.91 351.916L1277.73 551.654C1296.61 613.666 1239.03 671.727 1177.53 652.687L979.447 591.36C964.109 586.612 947.711 586.612 932.373 591.36L734.288 652.687C672.79 671.727 615.21 613.666 634.092 551.654L694.911 351.916C699.62 336.45 699.62 319.915 694.911 304.449L634.092 104.711Z" fill="#E11616"/>
<path fill-rule="evenodd" clip-rule="evenodd" d="M1039.29 386.804H831.638V246.294H1039.29V386.804ZM835.964 362.567V379.598H875.047V362.567H835.964ZM914.131 362.567V379.598H953.214V362.567H914.131ZM992.298 362.567V379.598H1031.38V362.567H992.298ZM835.964 267.912H875.047V250.88H835.964V267.912ZM914.131 267.912H953.214V250.88H914.131V267.912ZM992.298 267.912H1031.38V250.88H992.298V267.912Z" fill="white"/>
<path d="M924.721 195.573C924.721 219.291 905.778 238.519 882.41 238.519C859.043 238.519 840.1 219.291 840.1 195.573C840.1 171.855 859.043 152.627 882.41 152.627C905.778 152.627 924.721 171.855 924.721 195.573Z" fill="white"/>
<path d="M890.872 219.193C890.872 223.937 887.084 227.782 882.41 227.782C877.737 227.782 873.948 223.937 873.948 219.193C873.948 214.45 877.737 210.604 882.41 210.604C887.084 210.604 890.872 214.45 890.872 219.193Z" fill="#E11616"/>
<path d="M912.028 206.309C912.028 211.053 908.239 214.899 903.566 214.899C898.892 214.899 895.104 211.053 895.104 206.309C895.104 201.566 898.892 197.72 903.566 197.72C908.239 197.72 912.028 201.566 912.028 206.309Z" fill="#E11616"/>
<path d="M869.717 206.309C869.717 211.053 865.929 214.899 861.255 214.899C856.582 214.899 852.793 211.053 852.793 206.309C852.793 201.566 856.582 197.72 861.255 197.72C865.929 197.72 869.717 201.566 869.717 206.309Z" fill="#E11616"/>
<path d="M873.948 169.805C873.948 165.062 877.737 161.216 882.41 161.216C887.084 161.216 890.873 165.062 890.873 169.805C890.873 174.549 887.084 178.395 882.41 178.395C877.737 178.395 873.948 174.549 873.948 169.805Z" fill="#E11616"/>
<path d="M852.793 182.689C852.793 177.945 856.582 174.1 861.255 174.1C865.929 174.1 869.717 177.945 869.717 182.689C869.717 187.433 865.929 191.278 861.255 191.278C856.582 191.278 852.793 187.433 852.793 182.689Z" fill="#E11616"/>
<path d="M895.103 182.689C895.103 177.945 898.892 174.1 903.566 174.1C908.239 174.1 912.028 177.945 912.028 182.689C912.028 187.433 908.239 191.278 903.566 191.278C898.892 191.278 895.103 187.433 895.103 182.689Z" fill="#E11616"/>
<path d="M1030.5 178.395C1030.5 206.857 1007.77 229.93 979.724 229.93C951.684 229.93 928.952 206.857 928.952 178.395C928.952 149.933 951.684 126.86 979.724 126.86C1007.77 126.86 1030.5 149.933 1030.5 178.395Z" fill="white"/>
<path d="M990.604 210.297C990.604 216.396 985.733 221.341 979.724 221.341C973.716 221.341 968.844 216.396 968.844 210.297C968.844 204.198 973.716 199.254 979.724 199.254C985.733 199.254 990.604 204.198 990.604 210.297Z" fill="#E11616"/>
<path d="M1017.8 193.732C1017.8 199.831 1012.93 204.776 1006.92 204.776C1000.92 204.776 996.044 199.831 996.044 193.732C996.044 187.633 1000.92 182.689 1006.92 182.689C1012.93 182.689 1017.8 187.633 1017.8 193.732Z" fill="#E11616"/>
<path d="M963.405 193.732C963.405 199.831 958.534 204.776 952.525 204.776C946.516 204.776 941.645 199.831 941.645 193.732C941.645 187.633 946.516 182.689 952.525 182.689C958.534 182.689 963.405 187.633 963.405 193.732Z" fill="#E11616"/>
<path d="M968.844 146.492C968.844 140.393 973.716 135.449 979.724 135.449C985.733 135.449 990.604 140.393 990.604 146.492C990.604 152.591 985.733 157.535 979.724 157.535C973.716 157.535 968.844 152.591 968.844 146.492Z" fill="#E11616"/>
<path d="M941.645 163.057C941.645 156.958 946.516 152.014 952.525 152.014C958.534 152.014 963.405 156.958 963.405 163.057C963.405 169.156 958.534 174.1 952.525 174.1C946.516 174.1 941.645 169.156 941.645 163.057Z" fill="#E11616"/>
<path d="M996.044 163.057C996.044 156.958 1000.92 152.014 1006.92 152.014C1012.93 152.014 1017.8 156.958 1017.8 163.057C1017.8 169.156 1012.93 174.1 1006.92 174.1C1000.92 174.1 996.044 169.156 996.044 163.057Z" fill="#E11616"/>
<path d="M963.023 395.586C966.727 395.587 969.728 398.634 969.73 402.394C969.73 406.155 966.728 409.209 963.023 409.209H950.141L995.827 514.428C997.128 517.423 995.79 520.919 992.839 522.239C989.888 523.558 986.444 522.201 985.144 519.205L946.97 431.284V525.735C946.97 529.009 944.355 531.663 941.13 531.663C937.907 531.66 935.29 529.007 935.29 525.735V428.737L887.755 527.217C886.336 530.157 882.835 531.374 879.938 529.934C877.045 528.493 875.844 524.938 877.262 522L931.708 409.209H922.766C919.061 409.209 916.059 406.155 916.059 402.394C916.06 398.634 919.061 395.587 922.766 395.586H963.023Z" fill="white"/>
<path d="M1055.09 276.393C1050.95 276.393 1047.59 279.798 1047.59 283.999V340.593C1047.59 344.958 1051.08 348.497 1055.38 348.497H1069.13C1087.9 348.497 1106.58 351.147 1124.64 356.371L1147.26 362.918V253.319L1135.95 258.557C1110.56 270.31 1082.99 276.393 1055.09 276.393Z" fill="white"/>
<path d="M823.332 265.965V295.472H823.059C806.736 295.472 790.52 298.143 775.034 303.383C774.278 303.639 773.497 303.067 773.497 302.258L773.497 263.616C773.497 262.639 774.361 261.896 775.31 262.057L781.886 263.169C792.886 265.03 804.019 265.965 815.17 265.965L823.332 265.965Z" fill="white"/>
<path d="M939.099 303.904H956.224V311.807H939.099V346.054H931.312V311.807H914.697V303.904H931.312V287.039H939.099V303.904Z" fill="#E11616"/>
<path d="M381.138 939.821V767.992H419.829L495.289 901.64V767.992H525.569V939.821H486.878L411.418 806.173V939.821H381.138Z" fill="white"/>
<path d="M622.563 939.821V767.992H744.404V792.573H653.805V839.349H738.637V863.452H653.805V915.24H747.048V939.821H622.563Z" fill="white"/>
<path d="M813.769 1144.38V1061.9H825.797V1077.62C828.534 1072.67 832.329 1068.67 837.185 1065.62C842.958 1062.07 849.481 1060.29 856.751 1060.29C865.305 1060.29 872.148 1062.77 877.28 1067.73C882.52 1072.58 885.139 1078.99 885.139 1086.97V1144.38H872.308V1090.37C872.308 1084.11 870.758 1079.42 867.657 1076.3C864.557 1073.17 859.959 1071.61 853.864 1071.61C848.518 1071.61 843.76 1072.79 839.59 1075.17C835.527 1077.54 832.32 1080.83 829.967 1085.03C827.722 1089.24 826.599 1094.14 826.599 1099.75V1144.38H813.769Z" fill="white"/>
<path fill-rule="evenodd" clip-rule="evenodd" d="M1559.16 939.821V767.992H1636.79C1649.44 767.992 1660.26 770.14 1669.23 774.435C1678.36 778.731 1685.33 784.777 1690.14 792.573C1695.1 800.369 1697.59 809.597 1697.59 820.256C1697.59 830.757 1695.1 839.985 1690.14 847.94C1685.17 855.895 1678.2 862.1 1669.23 866.555C1660.26 870.851 1649.44 872.999 1636.79 872.999H1590.41V939.821H1559.16ZM1658.17 841.019C1652.89 846.11 1645.28 848.656 1635.34 848.656H1590.41V792.573H1635.34C1645.28 792.573 1652.89 795.039 1658.17 799.971C1663.62 804.903 1666.35 811.665 1666.35 820.256C1666.35 829.007 1663.62 835.928 1658.17 841.019Z" fill="white"/>
<path fill-rule="evenodd" clip-rule="evenodd" d="M1307.46 939.821L1371.14 767.992H1378.35H1398.06H1406.71L1470.15 939.821H1437.95L1423.13 897.102H1353.09L1338.22 939.821H1307.46ZM1414.52 872.283H1361.74L1388.18 796.342L1414.52 872.283Z" fill="white"/>
<path fill-rule="evenodd" clip-rule="evenodd" d="M830.237 939.821L893.921 767.992H901.131H920.837H929.488L992.932 939.821H960.73L945.913 897.102H875.875L860.998 939.821H830.237ZM937.304 872.283H884.518L910.964 796.342L937.304 872.283Z" fill="white"/>
<path d="M1153.82 942.208C1135.56 942.208 1119.78 938.628 1106.48 931.468C1093.18 924.15 1082.93 913.967 1075.72 900.921C1068.51 887.715 1064.91 872.283 1064.91 854.622C1064.91 836.962 1068.51 821.529 1075.72 808.324C1082.93 794.959 1092.94 784.538 1105.76 777.06C1118.58 769.424 1133.48 765.605 1150.46 765.605C1164.24 765.605 1176.58 768.151 1187.47 773.242C1198.52 778.174 1207.42 785.016 1214.14 793.766C1221.03 802.358 1225.2 812.381 1226.64 823.836H1195.4C1193.8 813.654 1188.99 805.619 1180.98 799.732C1172.97 793.846 1162.96 790.902 1150.94 790.902C1140.05 790.902 1130.51 793.448 1122.34 798.539C1114.17 803.63 1107.84 810.869 1103.36 820.256C1098.87 829.643 1096.63 840.86 1096.63 853.906C1096.63 867.271 1098.87 878.726 1103.36 888.272C1108 897.659 1114.65 904.819 1123.3 909.751C1132.12 914.683 1142.85 917.149 1155.51 917.149C1165.28 917.149 1173.69 915.956 1180.74 913.569C1187.16 911.253 1192.44 907.948 1196.6 903.656V871.328H1155.27V846.985H1227.84V914.047C1218.71 923.274 1208.14 930.275 1196.12 935.048C1184.11 939.821 1170.01 942.208 1153.82 942.208Z" fill="white"/>
<path d="M1786.52 939.462V767.633H1908.36V792.214H1817.76V838.99H1902.59V863.094H1817.76V914.881H1911V939.462H1786.52Z" fill="white"/>
<path d="M1090.12 1144.38V1061.9H1102.15V1077.61C1104.87 1072.67 1108.62 1068.67 1113.38 1065.62C1118.94 1062.07 1124.98 1060.29 1131.5 1060.29C1139.41 1060.29 1145.83 1062.66 1150.75 1067.4C1153.5 1070 1155.48 1073.12 1156.7 1076.76C1159.4 1072.21 1163.09 1068.49 1167.75 1065.62C1173.52 1062.07 1179.72 1060.29 1186.35 1060.29C1194.26 1060.29 1200.73 1062.66 1205.76 1067.4C1210.78 1072.04 1213.3 1078.35 1213.3 1086.32V1144.38H1200.47V1089.72C1200.47 1083.47 1199.08 1078.89 1196.3 1075.97C1193.52 1073.06 1189.51 1071.61 1184.27 1071.61C1179.35 1071.61 1174.91 1072.79 1170.95 1075.17C1167 1077.54 1163.84 1080.83 1161.49 1085.03C1159.25 1089.24 1158.12 1094.14 1158.12 1099.75V1144.38H1145.29V1089.72C1145.29 1083.47 1143.9 1078.89 1141.12 1075.97C1138.34 1073.06 1134.33 1071.61 1129.09 1071.61C1124.18 1071.61 1119.74 1072.79 1115.78 1075.17C1111.83 1077.54 1108.67 1080.83 1106.32 1085.03C1104.2 1088.99 1103.09 1093.58 1102.96 1098.79C1102.96 1099.11 1102.95 1099.43 1102.95 1099.75V1144.38H1090.12Z" fill="white"/>
<path fill-rule="evenodd" clip-rule="evenodd" d="M1332.61 1144.38C1332.18 1142.55 1331.86 1140.45 1331.65 1138.08C1331.57 1136.37 1331.52 1134.32 1331.5 1131.94C1329.6 1135.9 1326.66 1139.08 1322.67 1141.47C1317.75 1144.49 1311.71 1146 1304.54 1146C1296.1 1146 1289.36 1143.95 1284.34 1139.85C1279.42 1135.65 1276.96 1129.94 1276.96 1122.71C1276.96 1115.49 1279.42 1109.88 1284.34 1105.89C1289.25 1101.9 1296.42 1099.1 1305.83 1097.48L1330.69 1093.26V1089.56C1330.69 1083.31 1329.24 1078.72 1326.36 1075.81C1323.58 1072.79 1319.03 1071.28 1312.72 1071.28C1306.52 1071.28 1301.55 1072.58 1297.81 1075.17C1294.17 1077.65 1292.14 1081.2 1291.71 1085.84H1279.36C1279.9 1077.86 1283.21 1071.61 1289.31 1067.08C1295.4 1062.55 1303.37 1060.29 1313.21 1060.29C1323.36 1060.29 1330.9 1062.71 1335.82 1067.56C1340.74 1072.42 1343.2 1079.69 1343.2 1089.4V1129.02C1343.2 1131.39 1343.36 1133.87 1343.68 1136.46C1344 1138.94 1344.43 1141.58 1344.96 1144.38H1332.61ZM1294.12 1112.36C1297.22 1110.1 1301.76 1108.48 1307.75 1107.51L1330.69 1103.89V1117.21C1330.69 1122.5 1328.39 1126.81 1323.79 1130.15C1319.3 1133.39 1313.47 1135 1306.31 1135C1300.75 1135 1296.53 1133.92 1293.64 1131.77C1290.86 1129.61 1289.47 1126.43 1289.47 1122.23C1289.47 1117.91 1291.02 1114.63 1294.12 1112.36Z" fill="white"/>
<path fill-rule="evenodd" clip-rule="evenodd" d="M988.206 1146C980.401 1146 973.505 1144.17 967.517 1140.5C961.529 1136.73 956.825 1131.61 953.403 1125.14C949.982 1118.67 948.271 1111.23 948.271 1102.82C948.271 1094.41 949.928 1087.03 953.243 1080.66C956.664 1074.2 961.422 1069.18 967.517 1065.62C973.611 1062.07 980.615 1060.29 988.527 1060.29C996.118 1060.29 1002.69 1061.96 1008.25 1065.3C1013.92 1068.64 1018.25 1073.33 1021.25 1079.37C1024.35 1085.41 1025.9 1092.52 1025.9 1100.72C1025.9 1101.8 1025.84 1102.82 1025.74 1103.79C1025.74 1104.76 1025.63 1105.84 1025.42 1107.03H961.595C962.232 1114.83 964.634 1121.25 968.8 1126.27C973.825 1132.09 980.508 1135 988.848 1135C994.087 1135 998.685 1133.87 1002.64 1131.61C1006.6 1129.23 1009.48 1125.89 1011.3 1121.58H1023.49C1020.82 1129.13 1016.33 1135.11 1010.02 1139.53C1003.82 1143.84 996.546 1146 988.206 1146ZM988.527 1071.28C996.439 1071.28 1002.53 1073.98 1006.81 1079.37C1010.27 1083.54 1012.36 1089.14 1013.09 1096.19H961.834C962.722 1089.58 965.044 1084.14 968.8 1079.86C973.825 1074.14 980.401 1071.28 988.527 1071.28Z" fill="white"/>
</svg>
