<svg width="96" height="95" viewBox="0 0 96 95" fill="none" xmlns="http://www.w3.org/2000/svg">
<path d="M0.53792 15.1555C-2.24685 6.18009 6.24515 -2.22345 15.315 0.532317L44.5287 9.40852C46.7908 10.0958 49.2092 10.0958 51.4713 9.40852L80.685 0.532322C89.7549 -2.22344 98.2468 6.18011 95.4621 15.1555L86.4925 44.0649C85.7979 46.3034 85.7979 48.6966 86.4925 50.9351L95.4621 79.8445C98.2468 88.8199 89.7549 97.2234 80.685 94.4677L51.4713 85.5915C49.2092 84.9042 46.7908 84.9042 44.5287 85.5915L15.315 94.4677C6.24514 97.2234 -2.24685 88.8199 0.53792 79.8445L9.50756 50.9351C10.2021 48.6966 10.2021 46.3034 9.50756 44.0649L0.53792 15.1555Z" fill="#E20E0E"/>
<path fill-rule="evenodd" clip-rule="evenodd" d="M60.2963 55.9847H29.6722V35.6477H60.2963V55.9847ZM30.3102 52.4767V54.9418H36.0743V52.4767H30.3102ZM41.8384 52.4767V54.9418H47.6025V52.4767H41.8384ZM53.3665 52.4767V54.9418H59.13V52.4767H53.3665ZM30.3102 38.7766H36.0743V36.3115H30.3102V38.7766ZM41.8384 38.7766H47.6025V36.3115H41.8384V38.7766ZM53.3665 38.7766H59.13V36.3115H53.3665V38.7766Z" fill="white"/>
<path d="M43.4002 28.3066C43.4002 31.7395 40.6065 34.5224 37.1602 34.5224C33.714 34.5224 30.9202 31.7395 30.9202 28.3066C30.9202 24.8736 33.714 22.0907 37.1602 22.0907C40.6065 22.0907 43.4002 24.8736 43.4002 28.3066Z" fill="white"/>
<path d="M38.4082 31.7253C38.4082 32.4118 37.8495 32.9684 37.1602 32.9684C36.471 32.9684 35.9122 32.4118 35.9122 31.7253C35.9122 31.0387 36.471 30.4821 37.1602 30.4821C37.8495 30.4821 38.4082 31.0387 38.4082 31.7253Z" fill="#E20E0E"/>
<path d="M41.5282 29.8605C41.5282 30.5471 40.9695 31.1037 40.2802 31.1037C39.591 31.1037 39.0322 30.5471 39.0322 29.8605C39.0322 29.1739 39.591 28.6173 40.2802 28.6173C40.9695 28.6173 41.5282 29.1739 41.5282 29.8605Z" fill="#E20E0E"/>
<path d="M35.2882 29.8605C35.2882 30.5471 34.7295 31.1037 34.0402 31.1037C33.351 31.1037 32.7922 30.5471 32.7922 29.8605C32.7922 29.1739 33.351 28.6173 34.0402 28.6173C34.7295 28.6173 35.2882 29.1739 35.2882 29.8605Z" fill="#E20E0E"/>
<path d="M35.9122 24.577C35.9122 23.8905 36.471 23.3339 37.1602 23.3339C37.8495 23.3339 38.4082 23.8905 38.4082 24.577C38.4082 25.2636 37.8495 25.8202 37.1602 25.8202C36.471 25.8202 35.9122 25.2636 35.9122 24.577Z" fill="#E20E0E"/>
<path d="M32.7922 26.4418C32.7922 25.7552 33.351 25.1986 34.0402 25.1986C34.7295 25.1986 35.2882 25.7552 35.2882 26.4418C35.2882 27.1284 34.7295 27.685 34.0402 27.685C33.351 27.685 32.7922 27.1284 32.7922 26.4418Z" fill="#E20E0E"/>
<path d="M39.0322 26.4418C39.0322 25.7552 39.5909 25.1986 40.2802 25.1986C40.9694 25.1986 41.5282 25.7552 41.5282 26.4418C41.5282 27.1284 40.9694 27.685 40.2802 27.685C39.5909 27.685 39.0322 27.1284 39.0322 26.4418Z" fill="#E20E0E"/>
<path d="M59.0002 25.8202C59.0002 29.9397 55.6477 33.2792 51.5122 33.2792C47.3767 33.2792 44.0242 29.9397 44.0242 25.8202C44.0242 21.7007 47.3767 18.3612 51.5122 18.3612C55.6477 18.3612 59.0002 21.7007 59.0002 25.8202Z" fill="white"/>
<path d="M53.1168 30.4377C53.1168 31.3205 52.3984 32.0361 51.5122 32.0361C50.626 32.0361 49.9076 31.3205 49.9076 30.4377C49.9076 29.555 50.626 28.8393 51.5122 28.8393C52.3984 28.8393 53.1168 29.555 53.1168 30.4377Z" fill="#E20E0E"/>
<path d="M57.1282 28.0402C57.1282 28.9229 56.4098 29.6385 55.5236 29.6385C54.6374 29.6385 53.919 28.9229 53.919 28.0402C53.919 27.1574 54.6374 26.4418 55.5236 26.4418C56.4098 26.4418 57.1282 27.1574 57.1282 28.0402Z" fill="#E20E0E"/>
<path d="M49.1053 28.0402C49.1053 28.9229 48.387 29.6385 47.5008 29.6385C46.6146 29.6385 45.8962 28.9229 45.8962 28.0402C45.8962 27.1574 46.6146 26.4418 47.5008 26.4418C48.387 26.4418 49.1053 27.1574 49.1053 28.0402Z" fill="#E20E0E"/>
<path d="M49.9076 21.2027C49.9076 20.32 50.626 19.6044 51.5122 19.6044C52.3984 19.6044 53.1168 20.32 53.1168 21.2027C53.1168 22.0855 52.3984 22.8011 51.5122 22.8011C50.626 22.8011 49.9076 22.0855 49.9076 21.2027Z" fill="#E20E0E"/>
<path d="M45.8962 23.6003C45.8962 22.7175 46.6146 22.0019 47.5008 22.0019C48.387 22.0019 49.1053 22.7175 49.1053 23.6003C49.1053 24.483 48.387 25.1986 47.5008 25.1986C46.6146 25.1986 45.8962 24.483 45.8962 23.6003Z" fill="#E20E0E"/>
<path d="M53.919 23.6003C53.919 22.7175 54.6374 22.0019 55.5236 22.0019C56.4098 22.0019 57.1282 22.7175 57.1282 23.6003C57.1282 24.483 56.4098 25.1986 55.5236 25.1986C54.6374 25.1986 53.919 24.483 53.919 23.6003Z" fill="#E20E0E"/>
<path d="M49.049 57.2558C49.5953 57.2558 50.038 57.6969 50.0382 58.2411C50.0382 58.7855 49.5955 59.2275 49.049 59.2276H47.1492L53.8871 74.4565C54.0789 74.8901 53.8816 75.396 53.4464 75.587C53.0112 75.7779 52.5032 75.5815 52.3114 75.148L46.6815 62.4226V76.0931C46.6815 76.567 46.2959 76.9511 45.8202 76.9511C45.3449 76.9506 44.9589 76.5667 44.9589 76.0931V62.0539L37.9485 76.3076C37.7392 76.7331 37.2228 76.9093 36.7956 76.7008C36.3689 76.4922 36.1917 75.9777 36.4009 75.5524L44.4307 59.2276H43.1118C42.5655 59.2275 42.1227 58.7854 42.1227 58.2411C42.1229 57.697 42.5656 57.2559 43.1118 57.2558H49.049Z" fill="white"/>
<path d="M62.6266 40.0041C62.0161 40.0041 61.5213 40.497 61.5213 41.1051V49.2963C61.5213 49.928 62.0355 50.4402 62.6697 50.4402H64.6981C67.4666 50.4402 70.2217 50.8238 72.8842 51.5799L76.2209 52.5274V36.6645L74.5524 37.4226C70.8085 39.1238 66.7416 40.0041 62.6266 40.0041Z" fill="white"/>
<path d="M28.4473 38.4949V42.7656H28.407C25.9997 42.7656 23.6081 43.1523 21.3242 43.9106C21.2127 43.9476 21.0975 43.8649 21.0975 43.7478L21.0975 38.1548C21.0975 38.0135 21.2249 37.9059 21.3649 37.9292L22.3348 38.0902C23.9571 38.3595 25.5989 38.4949 27.2435 38.4949L28.4473 38.4949Z" fill="white"/>
<path d="M45.5207 43.986H48.0463V45.1299H45.5207V50.0867H44.3723V45.1299H41.9218V43.986H44.3723V41.545H45.5207V43.986Z" fill="#E20E0E"/>
</svg>
